<mxfile host="app.diagrams.net" modified="2021-10-15T08:56:16.609Z" agent="5.0 (Windows NT 10.0; Win64; x64) AppleWebKit/537.36 (KHTML, like Gecko) Chrome/94.0.4606.81 Safari/537.36" etag="ad0JWiiFCEq6Kw5OgBgv" version="15.5.2" type="github">
  <diagram id="Gp0GpJyLfUKRYIFimh9d" name="Page-1">
    <mxGraphModel dx="868" dy="484" grid="1" gridSize="10" guides="1" tooltips="1" connect="1" arrows="1" fold="1" page="1" pageScale="1" pageWidth="850" pageHeight="1100" math="0" shadow="0">
      <root>
        <mxCell id="0" />
        <mxCell id="1" parent="0" />
        <mxCell id="jjy9H3VErHNOA_m6Dxca-99" value="" style="group" vertex="1" connectable="0" parent="1">
          <mxGeometry x="80" y="20" width="580" height="620" as="geometry" />
        </mxCell>
        <mxCell id="jjy9H3VErHNOA_m6Dxca-42" value="VPC" style="sketch=0;outlineConnect=0;gradientColor=none;html=1;whiteSpace=wrap;fontSize=12;fontStyle=0;shape=mxgraph.aws4.group;grIcon=mxgraph.aws4.group_vpc;strokeColor=#879196;fillColor=none;verticalAlign=top;align=left;spacingLeft=30;fontColor=#879196;dashed=0;" vertex="1" parent="jjy9H3VErHNOA_m6Dxca-99">
          <mxGeometry x="130" y="70" width="450" height="550" as="geometry" />
        </mxCell>
        <mxCell id="jjy9H3VErHNOA_m6Dxca-1" value="" style="aspect=fixed;perimeter=ellipsePerimeter;html=1;align=center;shadow=0;dashed=0;spacingTop=3;image;image=img/lib/active_directory/users.svg;" vertex="1" parent="jjy9H3VErHNOA_m6Dxca-99">
          <mxGeometry x="341.5" width="33" height="50" as="geometry" />
        </mxCell>
        <mxCell id="jjy9H3VErHNOA_m6Dxca-4" value="Firewall Subnet" style="points=[[0,0],[0.25,0],[0.5,0],[0.75,0],[1,0],[1,0.25],[1,0.5],[1,0.75],[1,1],[0.75,1],[0.5,1],[0.25,1],[0,1],[0,0.75],[0,0.5],[0,0.25]];outlineConnect=0;gradientColor=none;html=1;whiteSpace=wrap;fontSize=12;fontStyle=0;shape=mxgraph.aws4.group;grIcon=mxgraph.aws4.group_security_group;grStroke=0;strokeColor=#248814;fillColor=#E9F3E6;verticalAlign=top;align=left;spacingLeft=30;fontColor=#248814;dashed=0;" vertex="1" parent="jjy9H3VErHNOA_m6Dxca-99">
          <mxGeometry x="303.25" y="260" width="109.5" height="80" as="geometry" />
        </mxCell>
        <mxCell id="jjy9H3VErHNOA_m6Dxca-2" value="" style="sketch=0;outlineConnect=0;fontColor=#232F3E;gradientColor=none;fillColor=#A166FF;strokeColor=none;dashed=0;verticalLabelPosition=bottom;verticalAlign=top;align=center;html=1;fontSize=12;fontStyle=0;aspect=fixed;pointerEvents=1;shape=mxgraph.aws4.internet_gateway;" vertex="1" parent="jjy9H3VErHNOA_m6Dxca-99">
          <mxGeometry x="329" y="150" width="58" height="58" as="geometry" />
        </mxCell>
        <mxCell id="jjy9H3VErHNOA_m6Dxca-5" value="&lt;font color=&quot;#000000&quot;&gt;Customer Subnet&lt;/font&gt;" style="sketch=0;outlineConnect=0;gradientColor=none;html=1;whiteSpace=wrap;fontSize=12;fontStyle=0;shape=mxgraph.aws4.group;grIcon=mxgraph.aws4.group_subnet;strokeColor=#000000;fillColor=none;verticalAlign=top;align=left;spacingLeft=30;fontColor=#E8E8E8;dashed=0;" vertex="1" parent="jjy9H3VErHNOA_m6Dxca-99">
          <mxGeometry x="273.25" y="410" width="169.5" height="150" as="geometry" />
        </mxCell>
        <mxCell id="jjy9H3VErHNOA_m6Dxca-6" value="Internet Gateway" style="text;html=1;align=center;verticalAlign=middle;resizable=0;points=[];autosize=1;strokeColor=none;fillColor=none;fontColor=#000000;" vertex="1" parent="jjy9H3VErHNOA_m6Dxca-99">
          <mxGeometry x="390" y="180" width="110" height="20" as="geometry" />
        </mxCell>
        <mxCell id="jjy9H3VErHNOA_m6Dxca-7" value="" style="outlineConnect=0;dashed=0;verticalLabelPosition=bottom;verticalAlign=top;align=center;html=1;shape=mxgraph.aws3.ec2;fillColor=#F58534;gradientColor=none;fontColor=#000000;strokeColor=#000000;" vertex="1" parent="jjy9H3VErHNOA_m6Dxca-99">
          <mxGeometry x="287" y="470" width="50" height="53" as="geometry" />
        </mxCell>
        <mxCell id="jjy9H3VErHNOA_m6Dxca-8" value="" style="outlineConnect=0;dashed=0;verticalLabelPosition=bottom;verticalAlign=top;align=center;html=1;shape=mxgraph.aws3.ec2;fillColor=#F58534;gradientColor=none;fontColor=#000000;strokeColor=#000000;" vertex="1" parent="jjy9H3VErHNOA_m6Dxca-99">
          <mxGeometry x="352" y="500" width="50" height="53" as="geometry" />
        </mxCell>
        <mxCell id="jjy9H3VErHNOA_m6Dxca-9" value="" style="outlineConnect=0;dashed=0;verticalLabelPosition=bottom;verticalAlign=top;align=center;html=1;shape=mxgraph.aws3.ec2;fillColor=#F58534;gradientColor=none;fontColor=#000000;strokeColor=#000000;" vertex="1" parent="jjy9H3VErHNOA_m6Dxca-99">
          <mxGeometry x="379" y="440" width="50" height="53" as="geometry" />
        </mxCell>
        <mxCell id="jjy9H3VErHNOA_m6Dxca-15" value="" style="endArrow=classic;startArrow=classic;html=1;rounded=0;fontColor=#000000;entryX=0.5;entryY=1;entryDx=0;entryDy=0;" edge="1" parent="jjy9H3VErHNOA_m6Dxca-99" source="jjy9H3VErHNOA_m6Dxca-2" target="jjy9H3VErHNOA_m6Dxca-1">
          <mxGeometry width="50" height="50" relative="1" as="geometry">
            <mxPoint x="324.5" y="130" as="sourcePoint" />
            <mxPoint x="358" y="60" as="targetPoint" />
          </mxGeometry>
        </mxCell>
        <mxCell id="jjy9H3VErHNOA_m6Dxca-16" value="" style="endArrow=classic;startArrow=classic;html=1;rounded=0;fontColor=#000000;entryX=0.5;entryY=1;entryDx=0;entryDy=0;" edge="1" parent="jjy9H3VErHNOA_m6Dxca-99">
          <mxGeometry width="50" height="50" relative="1" as="geometry">
            <mxPoint x="358" y="260" as="sourcePoint" />
            <mxPoint x="357.5" y="208" as="targetPoint" />
          </mxGeometry>
        </mxCell>
        <mxCell id="jjy9H3VErHNOA_m6Dxca-17" value="" style="endArrow=classic;startArrow=classic;html=1;rounded=0;fontColor=#000000;exitX=0.5;exitY=1;exitDx=0;exitDy=0;" edge="1" parent="jjy9H3VErHNOA_m6Dxca-99" source="jjy9H3VErHNOA_m6Dxca-4" target="jjy9H3VErHNOA_m6Dxca-5">
          <mxGeometry width="50" height="50" relative="1" as="geometry">
            <mxPoint x="368" y="270" as="sourcePoint" />
            <mxPoint x="380" y="370" as="targetPoint" />
          </mxGeometry>
        </mxCell>
        <mxCell id="jjy9H3VErHNOA_m6Dxca-43" value="10.10.0.0/16" style="text;html=1;align=center;verticalAlign=middle;resizable=0;points=[];autosize=1;strokeColor=none;fillColor=none;fontColor=#000000;" vertex="1" parent="jjy9H3VErHNOA_m6Dxca-99">
          <mxGeometry x="500" y="80" width="80" height="20" as="geometry" />
        </mxCell>
        <mxCell id="jjy9H3VErHNOA_m6Dxca-44" value="10.10.1.0/25" style="text;html=1;align=center;verticalAlign=middle;resizable=0;points=[];autosize=1;strokeColor=none;fillColor=none;fontColor=#000000;" vertex="1" parent="jjy9H3VErHNOA_m6Dxca-99">
          <mxGeometry x="450" y="423.5" width="80" height="20" as="geometry" />
        </mxCell>
        <mxCell id="jjy9H3VErHNOA_m6Dxca-45" value="10.10.0.240/28" style="text;html=1;align=center;verticalAlign=middle;resizable=0;points=[];autosize=1;strokeColor=none;fillColor=none;fontColor=#000000;" vertex="1" parent="jjy9H3VErHNOA_m6Dxca-99">
          <mxGeometry x="412.75" y="280" width="100" height="20" as="geometry" />
        </mxCell>
        <mxCell id="jjy9H3VErHNOA_m6Dxca-46" value="" style="sketch=0;outlineConnect=0;fontColor=#232F3E;gradientColor=none;fillColor=#FF5252;strokeColor=none;dashed=0;verticalLabelPosition=bottom;verticalAlign=top;align=center;html=1;fontSize=12;fontStyle=0;aspect=fixed;pointerEvents=1;shape=mxgraph.aws4.network_firewall_endpoints;" vertex="1" parent="jjy9H3VErHNOA_m6Dxca-99">
          <mxGeometry x="357" y="300" width="30" height="30" as="geometry" />
        </mxCell>
        <mxCell id="jjy9H3VErHNOA_m6Dxca-48" value="Firewall End point" style="text;html=1;align=center;verticalAlign=middle;resizable=0;points=[];autosize=1;strokeColor=none;fillColor=none;fontColor=#000000;" vertex="1" parent="jjy9H3VErHNOA_m6Dxca-99">
          <mxGeometry x="400" y="310" width="110" height="20" as="geometry" />
        </mxCell>
        <mxCell id="jjy9H3VErHNOA_m6Dxca-81" value="Firewall RT" style="shape=table;startSize=30;container=1;collapsible=1;childLayout=tableLayout;fixedRows=1;rowLines=0;fontStyle=1;align=center;resizeLast=1;fontColor=#000000;strokeColor=#000000;" vertex="1" parent="jjy9H3VErHNOA_m6Dxca-99">
          <mxGeometry y="252.5" width="200" height="125" as="geometry">
            <mxRectangle x="60" y="455" width="110" height="30" as="alternateBounds" />
          </mxGeometry>
        </mxCell>
        <mxCell id="jjy9H3VErHNOA_m6Dxca-82" value="" style="shape=partialRectangle;collapsible=0;dropTarget=0;pointerEvents=0;fillColor=none;top=0;left=0;bottom=0;right=0;points=[[0,0.5],[1,0.5]];portConstraint=eastwest;fontColor=#000000;strokeColor=#000000;" vertex="1" parent="jjy9H3VErHNOA_m6Dxca-81">
          <mxGeometry y="30" width="200" height="25" as="geometry" />
        </mxCell>
        <mxCell id="jjy9H3VErHNOA_m6Dxca-83" value="Destination   " style="shape=partialRectangle;connectable=0;fillColor=none;top=0;left=0;bottom=0;right=0;fontStyle=1;overflow=hidden;fontColor=#000000;strokeColor=#000000;" vertex="1" parent="jjy9H3VErHNOA_m6Dxca-82">
          <mxGeometry width="100" height="25" as="geometry">
            <mxRectangle width="100" height="25" as="alternateBounds" />
          </mxGeometry>
        </mxCell>
        <mxCell id="jjy9H3VErHNOA_m6Dxca-84" value="Target" style="shape=partialRectangle;connectable=0;fillColor=none;top=0;left=0;bottom=0;right=0;align=left;spacingLeft=6;fontStyle=5;overflow=hidden;fontColor=#000000;strokeColor=#000000;" vertex="1" parent="jjy9H3VErHNOA_m6Dxca-82">
          <mxGeometry x="100" width="100" height="25" as="geometry">
            <mxRectangle width="100" height="25" as="alternateBounds" />
          </mxGeometry>
        </mxCell>
        <mxCell id="jjy9H3VErHNOA_m6Dxca-85" value="" style="shape=partialRectangle;collapsible=0;dropTarget=0;pointerEvents=0;fillColor=none;top=0;left=0;bottom=0;right=0;points=[[0,0.5],[1,0.5]];portConstraint=eastwest;fontColor=#000000;strokeColor=#000000;" vertex="1" parent="jjy9H3VErHNOA_m6Dxca-81">
          <mxGeometry y="55" width="200" height="30" as="geometry" />
        </mxCell>
        <mxCell id="jjy9H3VErHNOA_m6Dxca-86" value="10.10.0.0/16" style="shape=partialRectangle;connectable=0;fillColor=none;top=0;left=0;bottom=0;right=0;editable=1;overflow=hidden;fontColor=#000000;strokeColor=#000000;" vertex="1" parent="jjy9H3VErHNOA_m6Dxca-85">
          <mxGeometry width="100" height="30" as="geometry">
            <mxRectangle width="100" height="30" as="alternateBounds" />
          </mxGeometry>
        </mxCell>
        <mxCell id="jjy9H3VErHNOA_m6Dxca-87" value="Local" style="shape=partialRectangle;connectable=0;fillColor=none;top=0;left=0;bottom=0;right=0;align=left;spacingLeft=6;overflow=hidden;fontColor=#000000;strokeColor=#000000;" vertex="1" parent="jjy9H3VErHNOA_m6Dxca-85">
          <mxGeometry x="100" width="100" height="30" as="geometry">
            <mxRectangle width="100" height="30" as="alternateBounds" />
          </mxGeometry>
        </mxCell>
        <mxCell id="jjy9H3VErHNOA_m6Dxca-88" value="" style="group" vertex="1" connectable="0" parent="jjy9H3VErHNOA_m6Dxca-99">
          <mxGeometry y="428" width="200" height="125" as="geometry" />
        </mxCell>
        <mxCell id="jjy9H3VErHNOA_m6Dxca-62" value="Customer RT" style="shape=table;startSize=30;container=1;collapsible=1;childLayout=tableLayout;fixedRows=1;rowLines=0;fontStyle=1;align=center;resizeLast=1;fontColor=#000000;strokeColor=#000000;" vertex="1" parent="jjy9H3VErHNOA_m6Dxca-88">
          <mxGeometry width="200" height="125" as="geometry">
            <mxRectangle x="60" y="455" width="110" height="30" as="alternateBounds" />
          </mxGeometry>
        </mxCell>
        <mxCell id="jjy9H3VErHNOA_m6Dxca-63" value="" style="shape=partialRectangle;collapsible=0;dropTarget=0;pointerEvents=0;fillColor=none;top=0;left=0;bottom=0;right=0;points=[[0,0.5],[1,0.5]];portConstraint=eastwest;fontColor=#000000;strokeColor=#000000;" vertex="1" parent="jjy9H3VErHNOA_m6Dxca-62">
          <mxGeometry y="30" width="200" height="25" as="geometry" />
        </mxCell>
        <mxCell id="jjy9H3VErHNOA_m6Dxca-64" value="Destination   " style="shape=partialRectangle;connectable=0;fillColor=none;top=0;left=0;bottom=0;right=0;fontStyle=1;overflow=hidden;fontColor=#000000;strokeColor=#000000;" vertex="1" parent="jjy9H3VErHNOA_m6Dxca-63">
          <mxGeometry width="100" height="25" as="geometry">
            <mxRectangle width="100" height="25" as="alternateBounds" />
          </mxGeometry>
        </mxCell>
        <mxCell id="jjy9H3VErHNOA_m6Dxca-65" value="Target" style="shape=partialRectangle;connectable=0;fillColor=none;top=0;left=0;bottom=0;right=0;align=left;spacingLeft=6;fontStyle=5;overflow=hidden;fontColor=#000000;strokeColor=#000000;" vertex="1" parent="jjy9H3VErHNOA_m6Dxca-63">
          <mxGeometry x="100" width="100" height="25" as="geometry">
            <mxRectangle width="100" height="25" as="alternateBounds" />
          </mxGeometry>
        </mxCell>
        <mxCell id="jjy9H3VErHNOA_m6Dxca-72" value="" style="shape=partialRectangle;collapsible=0;dropTarget=0;pointerEvents=0;fillColor=none;top=0;left=0;bottom=0;right=0;points=[[0,0.5],[1,0.5]];portConstraint=eastwest;fontColor=#000000;strokeColor=#000000;" vertex="1" parent="jjy9H3VErHNOA_m6Dxca-62">
          <mxGeometry y="55" width="200" height="30" as="geometry" />
        </mxCell>
        <mxCell id="jjy9H3VErHNOA_m6Dxca-73" value="0.0.0.0/0" style="shape=partialRectangle;connectable=0;fillColor=none;top=0;left=0;bottom=0;right=0;editable=1;overflow=hidden;fontColor=#000000;strokeColor=#000000;" vertex="1" parent="jjy9H3VErHNOA_m6Dxca-72">
          <mxGeometry width="100" height="30" as="geometry">
            <mxRectangle width="100" height="30" as="alternateBounds" />
          </mxGeometry>
        </mxCell>
        <mxCell id="jjy9H3VErHNOA_m6Dxca-74" value="FW Endpoint" style="shape=partialRectangle;connectable=0;fillColor=none;top=0;left=0;bottom=0;right=0;align=left;spacingLeft=6;overflow=hidden;fontColor=#000000;strokeColor=#000000;" vertex="1" parent="jjy9H3VErHNOA_m6Dxca-72">
          <mxGeometry x="100" width="100" height="30" as="geometry">
            <mxRectangle width="100" height="30" as="alternateBounds" />
          </mxGeometry>
        </mxCell>
        <mxCell id="jjy9H3VErHNOA_m6Dxca-78" value="" style="shape=partialRectangle;collapsible=0;dropTarget=0;pointerEvents=0;fillColor=none;top=0;left=0;bottom=0;right=0;points=[[0,0.5],[1,0.5]];portConstraint=eastwest;fontColor=#000000;strokeColor=#000000;" vertex="1" parent="jjy9H3VErHNOA_m6Dxca-88">
          <mxGeometry y="87.5" width="200" height="30" as="geometry" />
        </mxCell>
        <mxCell id="jjy9H3VErHNOA_m6Dxca-79" value="10.10.0.0/16" style="shape=partialRectangle;connectable=0;fillColor=none;top=0;left=0;bottom=0;right=0;editable=1;overflow=hidden;fontColor=#000000;strokeColor=#000000;" vertex="1" parent="jjy9H3VErHNOA_m6Dxca-78">
          <mxGeometry width="100" height="30" as="geometry">
            <mxRectangle width="100" height="30" as="alternateBounds" />
          </mxGeometry>
        </mxCell>
        <mxCell id="jjy9H3VErHNOA_m6Dxca-80" value="Local" style="shape=partialRectangle;connectable=0;fillColor=none;top=0;left=0;bottom=0;right=0;align=left;spacingLeft=6;overflow=hidden;fontColor=#000000;strokeColor=#000000;" vertex="1" parent="jjy9H3VErHNOA_m6Dxca-78">
          <mxGeometry x="120" width="100" height="30" as="geometry">
            <mxRectangle width="100" height="30" as="alternateBounds" />
          </mxGeometry>
        </mxCell>
        <mxCell id="jjy9H3VErHNOA_m6Dxca-89" value="" style="shape=partialRectangle;collapsible=0;dropTarget=0;pointerEvents=0;fillColor=none;top=0;left=0;bottom=0;right=0;points=[[0,0.5],[1,0.5]];portConstraint=eastwest;fontColor=#000000;strokeColor=#000000;" vertex="1" parent="jjy9H3VErHNOA_m6Dxca-99">
          <mxGeometry y="330" width="200" height="30" as="geometry" />
        </mxCell>
        <mxCell id="jjy9H3VErHNOA_m6Dxca-90" value="0.0.0.0/0" style="shape=partialRectangle;connectable=0;fillColor=none;top=0;left=0;bottom=0;right=0;editable=1;overflow=hidden;fontColor=#000000;strokeColor=#000000;" vertex="1" parent="jjy9H3VErHNOA_m6Dxca-89">
          <mxGeometry width="100" height="30" as="geometry">
            <mxRectangle width="100" height="30" as="alternateBounds" />
          </mxGeometry>
        </mxCell>
        <mxCell id="jjy9H3VErHNOA_m6Dxca-91" value="IGW" style="shape=partialRectangle;connectable=0;fillColor=none;top=0;left=0;bottom=0;right=0;align=left;spacingLeft=6;overflow=hidden;fontColor=#000000;strokeColor=#000000;" vertex="1" parent="jjy9H3VErHNOA_m6Dxca-89">
          <mxGeometry x="100" width="100" height="30" as="geometry">
            <mxRectangle width="100" height="30" as="alternateBounds" />
          </mxGeometry>
        </mxCell>
        <mxCell id="jjy9H3VErHNOA_m6Dxca-92" value="Internet RT" style="shape=table;startSize=30;container=1;collapsible=1;childLayout=tableLayout;fixedRows=1;rowLines=0;fontStyle=1;align=center;resizeLast=1;fontColor=#000000;strokeColor=#000000;" vertex="1" parent="jjy9H3VErHNOA_m6Dxca-99">
          <mxGeometry x="10" y="118" width="180" height="90" as="geometry">
            <mxRectangle x="60" y="455" width="110" height="30" as="alternateBounds" />
          </mxGeometry>
        </mxCell>
        <mxCell id="jjy9H3VErHNOA_m6Dxca-93" value="" style="shape=partialRectangle;collapsible=0;dropTarget=0;pointerEvents=0;fillColor=none;top=0;left=0;bottom=0;right=0;points=[[0,0.5],[1,0.5]];portConstraint=eastwest;fontColor=#000000;strokeColor=#000000;" vertex="1" parent="jjy9H3VErHNOA_m6Dxca-92">
          <mxGeometry y="30" width="180" height="25" as="geometry" />
        </mxCell>
        <mxCell id="jjy9H3VErHNOA_m6Dxca-94" value="Destination   " style="shape=partialRectangle;connectable=0;fillColor=none;top=0;left=0;bottom=0;right=0;fontStyle=1;overflow=hidden;fontColor=#000000;strokeColor=#000000;" vertex="1" parent="jjy9H3VErHNOA_m6Dxca-93">
          <mxGeometry width="100" height="25" as="geometry">
            <mxRectangle width="100" height="25" as="alternateBounds" />
          </mxGeometry>
        </mxCell>
        <mxCell id="jjy9H3VErHNOA_m6Dxca-95" value="Target" style="shape=partialRectangle;connectable=0;fillColor=none;top=0;left=0;bottom=0;right=0;align=left;spacingLeft=6;fontStyle=5;overflow=hidden;fontColor=#000000;strokeColor=#000000;" vertex="1" parent="jjy9H3VErHNOA_m6Dxca-93">
          <mxGeometry x="100" width="80" height="25" as="geometry">
            <mxRectangle width="80" height="25" as="alternateBounds" />
          </mxGeometry>
        </mxCell>
        <mxCell id="jjy9H3VErHNOA_m6Dxca-96" value="" style="shape=partialRectangle;collapsible=0;dropTarget=0;pointerEvents=0;fillColor=none;top=0;left=0;bottom=0;right=0;points=[[0,0.5],[1,0.5]];portConstraint=eastwest;fontColor=#000000;strokeColor=#000000;" vertex="1" parent="jjy9H3VErHNOA_m6Dxca-92">
          <mxGeometry y="55" width="180" height="30" as="geometry" />
        </mxCell>
        <mxCell id="jjy9H3VErHNOA_m6Dxca-97" value="10.10.1.0/25" style="shape=partialRectangle;connectable=0;fillColor=none;top=0;left=0;bottom=0;right=0;editable=1;overflow=hidden;fontColor=#000000;strokeColor=#000000;" vertex="1" parent="jjy9H3VErHNOA_m6Dxca-96">
          <mxGeometry width="100" height="30" as="geometry">
            <mxRectangle width="100" height="30" as="alternateBounds" />
          </mxGeometry>
        </mxCell>
        <mxCell id="jjy9H3VErHNOA_m6Dxca-98" value="FW Endpoint" style="shape=partialRectangle;connectable=0;fillColor=none;top=0;left=0;bottom=0;right=0;align=left;spacingLeft=6;overflow=hidden;fontColor=#000000;strokeColor=#000000;" vertex="1" parent="jjy9H3VErHNOA_m6Dxca-96">
          <mxGeometry x="100" width="80" height="30" as="geometry">
            <mxRectangle width="80" height="30" as="alternateBounds" />
          </mxGeometry>
        </mxCell>
        <mxCell id="jjy9H3VErHNOA_m6Dxca-100" value="Availability zone" style="sketch=0;outlineConnect=0;gradientColor=none;html=1;whiteSpace=wrap;fontSize=12;fontStyle=0;shape=mxgraph.aws4.group;grIcon=mxgraph.aws4.group_availability_zone;strokeColor=#545B64;fillColor=none;verticalAlign=top;align=left;spacingLeft=30;fontColor=#545B64;dashed=1;" vertex="1" parent="1">
          <mxGeometry x="310" y="250" width="270" height="360" as="geometry" />
        </mxCell>
      </root>
    </mxGraphModel>
  </diagram>
</mxfile>
